<?xml version="1.0" encoding="UTF-8"?>
<svg xmlns="http://www.w3.org/2000/svg" width="446" height="185" viewBox="0 0 446 185" fill="none">
  <path d="M49.1485 148.177C44.3828 147.563 36.4898 149.968 34.2559 150.48L86.38 174.281L91.5924 164.3C92.5853 165.324 90.8085 161.37 87.1247 156.622C84.1461 152.783 78.1891 159.693 73.7213 158.158C72.3084 157.672 67.7642 152.016 62.5518 152.016C57.3394 152.016 55.1055 148.945 49.1485 148.177Z" fill="#0E5286"></path>
  <path d="M74.5021 124.321C72.0098 125.132 73.0924 116.877 74.058 113.365C74.2364 112.717 74.9918 112.57 75.4103 113.097C79.0542 117.683 77.1951 123.446 74.5021 124.321Z" fill="#0E5286"></path>
  <rect width="101.348" height="7.63878" transform="matrix(0.906089 0.423087 -0.402142 0.915577 62.6445 0)" fill="#1EA36E"></rect>
  <rect width="101.348" height="7.63878" transform="matrix(0.906089 0.423087 -0.402142 0.915577 3.07227 135.127)" fill="#1EA36E"></rect>
  <path d="M78.9287 81.3843C78.1841 82.1521 77.4395 83.6876 77.4395 86.7587C77.4395 89.7426 75.3305 90.5521 74.5278 93.4126C74.5947 96.2273 75.9502 102.882 77.4395 103.65C78.9287 104.418 78.9287 94.4367 78.9287 93.6685C78.9287 92.9004 79.6734 88.2945 80.418 87.5268C81.1626 86.759 85.6304 85.9912 89.3536 85.9912C93.8213 81.3847 91.5874 78.3136 91.5874 76.7781C91.5874 75.2425 91.5874 72.1715 95.3106 69.8682C99.0338 67.5649 103.502 72.9392 104.991 74.4748C106.48 76.0103 106.48 82.9202 107.969 82.9202C109.161 82.9202 111.941 78.8254 113.182 76.7781C112.437 75.4984 110.65 72.9392 109.459 72.9392C107.969 72.9392 105.148 68.2516 106.48 67.5649C107.969 66.7971 108.714 62.1905 108.714 60.655C108.714 56.8162 116.905 53.7451 116.16 51.4418C115.565 49.5992 108.714 41.4609 98.2891 40.04C99.0338 41.2813 100.374 43.9174 99.7784 44.5316C99.0338 45.2993 96.0552 45.2997 96.0552 49.1385C96.0552 51.4418 91.5874 49.9059 89.3536 49.9059C87.1197 49.9059 84.1412 52.977 83.3965 53.7447L83.3965 53.7448C82.6519 54.5125 78.1841 52.2092 75.2056 55.2803C72.227 58.3513 78.9287 61.4224 82.6519 64.4935C86.375 67.5645 84.1411 69.8678 83.3965 70.6356C82.6519 71.4034 81.9072 72.9389 83.3965 75.2422C84.8858 77.5455 79.6734 80.6165 78.9287 81.3843Z" fill="#0E5286"></path>
  <path d="M74.46 78.3136C68.5573 73.5663 64.0352 67.263 64.0352 59.8873C64.0352 45.4704 70.7466 37.6221 86.3741 37.6221C102.002 37.6221 119.138 46.2382 119.138 60.655C119.138 75.0719 110.192 85.9913 94.565 85.9913H81.1617" stroke="#0E5286"></path>
  <path d="M69.9922 67.5636C75.0185 69.8669 75.9492 79.0801 74.46 79.8478L71.4815 76.7768L65.5244 67.5636L64.0352 54.5116L67.7583 45.2984L72.2261 41.4595L77.4385 39.1562C76.6939 40.4359 76.2471 42.5344 74.46 43.7628C72.2261 45.2984 69.9919 47.6017 70.7368 49.1372C71.4818 50.6727 70.7368 56.0471 69.9922 57.5826C69.2476 59.1182 63.2905 64.4925 69.9922 67.5636Z" fill="#0E5286"></path>
  <path d="M82.201 95.2034C81.9139 95.9709 79.68 99.8098 85.5346 104.405C104.735 119.474 98.7923 154.455 87.1266 175.051" stroke="#1EA36E" stroke-width="2"></path>
  <path d="M81.909 95.9717C81.909 94.4361 84.626 92.2858 91.2617 92.2858C115.391 92.2858 134.674 67.5644 142.969 45.2992" stroke="#1EA36E" stroke-width="2"></path>
  <path fill-rule="evenodd" clip-rule="evenodd" d="M72.0054 91.176C71.9948 91.1737 71.9949 91.1735 71.9949 91.1733L71.9953 91.1713L71.996 91.1678L71.9973 91.1615L71.9992 91.1529L71.9999 91.1498C71.9988 91.154 71.9944 91.1699 71.9852 91.1958C71.9669 91.2476 71.9298 91.339 71.8627 91.4559C71.7305 91.6865 71.4741 92.03 70.9894 92.372C70.024 93.0532 68.0269 93.8115 64.0196 93.441C51.6 92.2927 40.5806 98.2565 31.6835 107.198C22.7853 116.14 15.909 128.152 11.7241 139.386L13.5982 140.084C17.7079 129.053 24.4481 117.304 33.1012 108.608C41.7553 99.9114 52.2217 94.3587 63.8355 95.4325C68.1323 95.8298 70.6595 95.0525 72.1424 94.0062C72.8819 93.4844 73.3307 92.9163 73.5976 92.4511C73.73 92.2201 73.816 92.0175 73.8708 91.8624C73.8983 91.7849 73.9179 91.7191 73.9318 91.6673C73.9387 91.6415 73.9442 91.6191 73.9485 91.6004L73.954 91.5754L73.9562 91.565L73.9571 91.5604L73.9575 91.5582C73.9576 91.5579 73.9576 91.5576 73.9393 91.5538L73.9393 91.5535L73.9399 91.5504L73.9413 91.5431L73.9446 91.5243C73.9471 91.5098 73.9501 91.4916 73.9535 91.4697C73.9601 91.4258 73.9681 91.3671 73.976 91.2942C73.9918 91.1483 74.0072 90.9456 74.0109 90.6909C74.0183 90.1813 73.9789 89.465 73.8029 88.5826C73.4498 86.8121 72.5526 84.404 70.4265 81.677C63.0449 72.2096 59.8801 59.715 60.0219 46.9887C60.1637 34.2634 63.6127 21.3933 69.3552 11.2546C69.6301 10.7693 69.4723 10.1489 69.0026 9.86906C68.533 9.58916 67.9294 9.75574 67.6545 10.2411C61.7314 20.6987 58.197 33.917 58.0514 46.9786C57.9058 60.0392 61.1496 73.0301 68.8866 82.9534C70.822 85.4357 71.5829 87.5518 71.8724 89.0031C72.0178 89.7317 72.0459 90.3007 72.0404 90.6737C72.0377 90.8604 72.0266 90.9982 72.0175 91.0827C72.0129 91.1249 72.0088 91.1538 72.0066 91.1687L72.0054 91.176ZM72.0055 91.176C72.043 91.184 72.2123 91.2175 72.9762 91.3657C73.0751 91.3848 73.164 91.4021 73.244 91.4176C73.1633 91.4016 73.0732 91.3836 72.9726 91.3636C72.0065 91.1709 72.0064 91.1715 72.0062 91.1721L72.006 91.1733L72.0056 91.1753L72.0055 91.176Z" fill="#1EA36E"></path>
  <path d="M185.933 46.1417H178.076V10" stroke="#0E5286" stroke-width="2.5" stroke-linecap="round" stroke-linejoin="round"></path>
  <path d="M200.861 46.1417H193.004V23.3567V10H200.861M194.575 23.3567H200.861" stroke="#0E5286" stroke-width="2.5" stroke-linecap="round" stroke-linejoin="round"></path>
  <path d="M226.004 101.926V29.6426H243.289M243.289 56.356H228.885" stroke="#0E5286" stroke-width="5" stroke-linecap="round" stroke-linejoin="round"></path>
  <path d="M305.356 101.926V29.6426H317.141H293.57" stroke="#0E5286" stroke-width="5" stroke-linecap="round" stroke-linejoin="round"></path>
  <path d="M257.071 29.6426C255.477 61.0701 253.093 98.7832 267.424 101.926C273.797 101.926 281.6 98.1547 280.963 70.4984C280.963 42.2136 280.166 31.4759 280.166 29.6426" stroke="#0E5286" stroke-width="5" stroke-linecap="round"></path>
  <path d="M330.929 29.6426C329.334 61.0701 326.95 98.7832 341.282 101.926C347.655 101.926 355.457 98.1547 354.82 70.4984C354.82 42.2136 354.024 31.4759 354.024 29.6426" stroke="#0E5286" stroke-width="5" stroke-linecap="round"></path>
  <path d="M367.426 101.925V72.8546M367.426 72.8546C387.854 72.0689 392.568 31.9988 367.426 28.0703V72.8546ZM367.426 72.8546C367.426 72.8546 379.997 81.4972 386.282 101.925" stroke="#0E5286" stroke-width="5" stroke-linecap="round" stroke-linejoin="round"></path>
  <path d="M189.859 147.496H182.002V124.711V111.354H189.859M183.573 124.711H189.859" stroke="#0E5286" stroke-width="2.5" stroke-linecap="round" stroke-linejoin="round"></path>
  <path d="M184.361 107.426L188.29 103.497" stroke="#0E5286" stroke-width="2.5" stroke-linecap="round" stroke-linejoin="round"></path>
  <path d="M202.431 111.354C202.431 111.354 202.431 140.424 202.431 144.352C202.431 148.281 197.717 147.495 197.717 147.495" stroke="#0E5286" stroke-width="2.5" stroke-linecap="round" stroke-linejoin="round"></path>
  <path d="M174.933 129.42C174.933 112.131 161.576 111.35 161.576 111.35L161.576 147.491C161.576 147.491 174.933 146.71 174.933 129.42Z" stroke="#0E5286" stroke-width="2.5" stroke-linecap="round" stroke-linejoin="round"></path>
  <path d="M213.432 136.495H219.717" stroke="#0E5286" stroke-width="2.5" stroke-linecap="round" stroke-linejoin="round"></path>
  <path d="M214.216 103.497L218.145 107.426" stroke="#0E5286" stroke-width="2.5" stroke-linecap="round" stroke-linejoin="round"></path>
  <path d="M210.289 147.496L215.789 110.568L221.289 147.496" stroke="#0E5286" stroke-width="2.5" stroke-linecap="round" stroke-linejoin="round"></path>
  <path d="M419.283 89.3545H425.569" stroke="#0E5286" stroke-width="2.5" stroke-linecap="round" stroke-linejoin="round"></path>
  <path d="M416.141 100.354L421.64 63.4268L427.14 100.354" stroke="#0E5286" stroke-width="2.5" stroke-linecap="round" stroke-linejoin="round"></path>
  <path d="M383.141 174.209V125.496L397.283 174.209V125.496" stroke="#0E5286" stroke-width="2.5" stroke-linecap="round" stroke-linejoin="round"></path>
  <path d="M373.712 174.209H361.141V143.499V125.496H373.712M362.712 143.499H373.712" stroke="#0E5286" stroke-width="2.5" stroke-linecap="round" stroke-linejoin="round"></path>
  <path d="M437.355 119.996L442.855 113.711" stroke="#0E5286" stroke-width="2.5" stroke-linecap="round" stroke-linejoin="round"></path>
  <path d="M444.425 174.209H431.854V143.499V125.496H444.425M433.425 143.499H444.425" stroke="#0E5286" stroke-width="2.5" stroke-linecap="round" stroke-linejoin="round"></path>
  <path d="M307.713 174.209V125.496C313.213 127.067 316.355 138.067 316.355 138.067C316.355 138.067 319.737 127.043 324.998 125.496V174.209" stroke="#0E5286" stroke-width="2.5" stroke-linecap="round" stroke-linejoin="round"></path>
  <path d="M334.428 174.209V125.496C339.928 127.067 343.07 138.067 343.07 138.067C343.07 138.067 346.452 127.043 351.713 125.496V174.209" stroke="#0E5286" stroke-width="2.5" stroke-linecap="round" stroke-linejoin="round"></path>
  <path d="M423.774 130.997C422.203 127.852 419.06 123.925 413.56 127.852C405.258 133.779 403.351 166.351 414.349 173.423C418.278 174.995 423.778 171.852 423.778 169.495" stroke="#0E5286" stroke-width="2.5" stroke-linecap="round" stroke-linejoin="round"></path>
  <path d="M272.92 130.997C271.349 127.852 268.207 123.925 262.707 127.852C254.404 133.779 252.497 166.351 263.495 173.423C267.425 174.995 272.925 171.852 272.925 169.495" stroke="#0E5286" stroke-width="2.5" stroke-linecap="round" stroke-linejoin="round"></path>
  <path d="M281 145.144C281 133.83 284.143 127.854 288.857 126.287C294.357 125.502 299.071 136.385 299.071 147.501C299.071 160.853 293.571 175 287.286 175C282.506 175 281 159.286 281 145.144Z" stroke="#0E5286" stroke-width="2.5" stroke-linecap="round" stroke-linejoin="round"></path>
</svg>
